<?xml version="1.0" encoding="UTF-8" standalone="no"?>
<svg
   xmlns:dc="http://purl.org/dc/elements/1.1/"
   xmlns:cc="http://creativecommons.org/ns#"
   xmlns:rdf="http://www.w3.org/1999/02/22-rdf-syntax-ns#"
   xmlns:svg="http://www.w3.org/2000/svg"
   xmlns="http://www.w3.org/2000/svg"
   xmlns:sodipodi="http://sodipodi.sourceforge.net/DTD/sodipodi-0.dtd"
   xmlns:inkscape="http://www.inkscape.org/namespaces/inkscape"
   id="Warstwa_1"
   data-name="Warstwa 1"
   viewBox="0 0 376 178"
   version="1.1"
   sodipodi:docname="geopocket-base-white.svg"
   inkscape:version="0.92.3 (2405546, 2018-03-11)">
  <metadata
     id="metadata33">
    <rdf:RDF>
      <cc:Work
         rdf:about="">
        <dc:format>image/svg+xml</dc:format>
        <dc:type
           rdf:resource="http://purl.org/dc/dcmitype/StillImage" />
        <dc:title>Base_negative</dc:title>
      </cc:Work>
    </rdf:RDF>
  </metadata>
  <sodipodi:namedview
     pagecolor="#ffffff"
     bordercolor="#666666"
     borderopacity="1"
     objecttolerance="10"
     gridtolerance="10"
     guidetolerance="10"
     inkscape:pageopacity="0"
     inkscape:pageshadow="2"
     inkscape:window-width="1920"
     inkscape:window-height="1025"
     id="namedview31"
     showgrid="false"
     inkscape:zoom="2.459829"
     inkscape:cx="226.50738"
     inkscape:cy="65.233021"
     inkscape:window-x="0"
     inkscape:window-y="0"
     inkscape:window-maximized="1"
     inkscape:current-layer="flowRoot385-1" />
  <defs
     id="defs4">
    <style
       id="style2">
      .cls-2 {
        fill: #fff;
      }
    </style>
  </defs>
  <title
     id="title6">Base_negative</title>
  <g
     aria-label="GEOPocket"
     transform="matrix(1.0525777,0,0,1.1487193,-120.59411,-438.76811)"
     style="font-style:normal;font-variant:normal;font-weight:normal;font-stretch:normal;font-size:40px;line-height:1.25;font-family:Nakula;-inkscape-font-specification:Nakula;letter-spacing:0px;word-spacing:0px;fill:#000000;fill-opacity:1;stroke:none"
     id="flowRoot385-1">
    <path
       style="fill:#ffffff;stroke-width:1"
       d="M 62.035156 35.105469 A 51.426337 51.426336 0 0 0 10.609375 86.53125 A 51.426337 51.426336 0 0 0 62.035156 137.95898 A 51.426337 51.426336 0 0 0 113.46289 86.53125 A 51.426337 51.426336 0 0 0 62.035156 35.105469 z M 62.035156 43.439453 A 43.092425 43.092425 0 0 1 105.12891 86.53125 A 43.092425 43.092425 0 0 1 62.035156 129.625 A 43.092425 43.092425 0 0 1 18.943359 86.53125 A 43.092425 43.092425 0 0 1 62.035156 43.439453 z "
       transform="matrix(0.95004863,0,0,0.87053469,114.57027,381.96286)"
       id="path26" />
    <path
       d="m 152.37055,457.00404 c -3.48771,0 -3.31037,5.9114 0,5.9114 h 2.06901 v 2.54188 c 0,3.8424 -1.2414,5.67492 -3.7833,5.67492 -2.60101,0 -3.8424,-1.83252 -3.8424,-5.67492 0,-1.53695 0,-7.44835 0,-16.84746 0,-2.71922 0.53202,-4.13796 1.35961,-4.84733 0.65026,-0.65025 1.6552,-0.76848 2.48279,-0.76848 0.82758,0 1.77341,0.11823 2.48278,0.76848 0.70937,0.65025 1.30052,2.06899 1.30052,4.84733 v 0.8276 c 0,1.18228 0.94579,2.1281 2.12809,2.1281 h 1.7143 c 1.12315,0 2.06897,-0.94582 2.06897,-2.1281 v -0.8276 c 0,-7.50745 -3.19213,-11.46808 -9.69466,-11.46808 -6.50253,0 -9.75379,3.96063 -9.75379,11.46808 v 16.84746 c 0,7.44835 3.25126,11.5272 9.75379,11.5272 6.50253,0 9.69466,-4.01974 9.69466,-11.5272 v -6.32517 c 0,-1.18229 -0.94582,-2.12811 -2.06897,-2.12811 z"
       style="font-style:normal;font-variant:normal;font-weight:bold;font-stretch:normal;font-size:64.99999762%;font-family:'Ostrich Sans';-inkscape-font-specification:'Ostrich Sans Bold';baseline-shift:super;fill:#ffffff;stroke-width:1.06575489"
       id="path21"
       inkscape:connector-curvature="0" />
    <path
       d="m 166.75555,437.14178 c -1.18227,0 -2.12809,0.94583 -2.12809,2.1281 v 35.58655 c 0,1.18228 0.94582,2.12809 2.12809,2.12809 h 12.7686 c 1.18227,0 2.1281,-0.94581 2.1281,-2.12809 v -1.59608 c 0,-1.18227 -0.94583,-2.12811 -2.1281,-2.12811 h -9.04443 v -11.17251 h 7.44835 c 1.18227,0 2.1281,-0.94581 2.1281,-2.1281 v -1.59607 c 0,-1.18227 -0.94583,-2.12811 -2.1281,-2.12811 h -7.44835 v -11.1134 h 9.04443 c 1.18227,0 2.1281,-0.94581 2.1281,-2.1281 v -1.59607 c 0,-1.18227 -0.94583,-2.1281 -2.1281,-2.1281 z"
       style="font-style:normal;font-variant:normal;font-weight:bold;font-stretch:normal;font-size:64.99999762%;font-family:'Ostrich Sans';-inkscape-font-specification:'Ostrich Sans Bold';baseline-shift:super;fill:#ffffff;stroke-width:1.06575489"
       id="path23"
       inkscape:connector-curvature="0" />
    <path
       d="m 185.58424,465.39822 c 0,4.66999 1.30051,7.38922 3.13305,9.22176 1.95074,1.89164 4.43353,2.36454 6.56163,2.36454 2.18721,0 4.67,-0.4729 6.62075,-2.36454 1.83254,-1.83254 3.07393,-4.55177 3.07393,-9.22176 v -16.72924 c 0,-7.50747 -3.19215,-11.5272 -9.69468,-11.5272 -6.44341,0 -9.69468,4.07886 -9.69468,11.5272 z m 5.91139,-16.72924 c 0,-3.8424 1.18228,-5.67493 3.78329,-5.67493 2.54189,0 3.78329,1.7143 3.78329,5.67493 v 16.72924 c 0,4.01974 -1.30051,5.73402 -3.78329,5.73402 -2.54189,0 -3.78329,-1.83252 -3.78329,-5.73402 z"
       style="font-style:normal;font-variant:normal;font-weight:bold;font-stretch:normal;font-size:64.99999762%;font-family:'Ostrich Sans';-inkscape-font-specification:'Ostrich Sans Bold';baseline-shift:super;fill:#ffffff;stroke-width:1.06575489"
       id="path25"
       inkscape:connector-curvature="0" />
    <path
       d="m 247.94014,459.93136 c 12.05935,0 17.3971,-4.77867 17.3971,-14.41067 0,-9.632 -5.33775,-14.41066 -17.3971,-14.41066 h -10.6755 c -1.97694,0 -3.5585,1.19466 -3.5585,2.688 v 44.94933 c 0,1.49333 1.58156,2.688 3.5585,2.688 h 2.76773 c 1.8781,0 3.45964,-1.19467 3.45964,-2.688 v -18.816 z m 0,-21.42933 c 5.33775,0 7.51239,2.016 7.51239,7.01866 0,4.85334 -2.17464,7.01867 -7.51239,7.01867 h -4.44813 v -14.03733 z"
       style="font-style:normal;font-variant:normal;font-weight:bold;font-stretch:normal;font-size:74.66666412px;font-family:'Ostrich Sans';-inkscape-font-specification:'Ostrich Sans Bold';fill:#ffffff;stroke-width:1.15058529"
       id="path27"
       inkscape:connector-curvature="0" />
    <path
       d="m 272.21948,466.80069 c 0,5.89867 2.17465,9.33334 5.2389,11.648 3.26196,2.38934 7.41354,2.98667 10.97204,2.98667 3.65735,0 7.80893,-0.59733 11.07089,-2.98667 3.06427,-2.31466 5.14006,-5.74933 5.14006,-11.648 v -21.13066 c 0,-9.48267 -5.33775,-14.56 -16.21095,-14.56 -10.77434,0 -16.21094,5.152 -16.21094,14.56 z m 9.88473,-21.13066 c 0,-4.85334 1.97694,-7.168 6.32621,-7.168 4.25043,0 6.32623,2.16533 6.32623,7.168 v 21.13066 c 0,5.07734 -2.17465,7.24267 -6.32623,7.24267 -4.25042,0 -6.32621,-2.31467 -6.32621,-7.24267 z"
       style="font-style:normal;font-variant:normal;font-weight:bold;font-stretch:normal;font-size:74.66666412px;font-family:'Ostrich Sans';-inkscape-font-specification:'Ostrich Sans Bold';fill:#ffffff;stroke-width:1.15058529"
       id="path29"
       inkscape:connector-curvature="0" />
    <path
       d="m 312.17845,466.80069 c 0,5.89867 2.17465,9.33334 5.23891,11.648 3.26196,2.38934 7.31469,2.98667 11.07088,2.98667 3.5585,0 7.71008,-0.59733 10.97204,-2.98667 3.06427,-2.31466 5.14006,-5.74933 5.14006,-11.648 v -1.04533 c 0,-1.49333 -1.58156,-2.688 -3.45965,-2.688 h -2.86657 c -1.97694,0 -3.5585,1.19467 -3.5585,2.688 v 1.04533 c 0,2.688 -0.49424,4.704 -1.6804,5.89867 -0.88963,0.74667 -2.66888,1.344 -4.54698,1.344 -4.25042,0 -6.32621,-2.24 -6.32621,-7.24267 v -21.13066 c 0,-5.00267 2.17463,-7.168 6.32621,-7.168 4.05275,0 6.22738,2.16533 6.22738,7.168 v 1.04533 c 0,1.49333 1.58156,2.688 3.5585,2.688 h 2.86657 c 1.87809,0 3.45965,-1.19467 3.45965,-2.688 v -1.04533 c 0,-5.67467 -2.07579,-9.408 -5.2389,-11.648 -3.26195,-2.24 -7.21585,-2.912 -10.8732,-2.912 -3.75619,0 -7.71008,0.672 -10.97204,2.912 -3.1631,2.24 -5.33775,5.97333 -5.33775,11.648 z"
       style="font-style:normal;font-variant:normal;font-weight:bold;font-stretch:normal;font-size:74.66666412px;font-family:'Ostrich Sans';-inkscape-font-specification:'Ostrich Sans Bold';fill:#ffffff;stroke-width:1.15058529"
       id="path31"
       inkscape:connector-curvature="0" />
    <path
       d="m 361.16034,449.92603 v -16.128 c 0,-1.49334 -1.58156,-2.688 -3.5585,-2.688 h -2.76773 c -1.97694,0 -3.5585,1.19466 -3.5585,2.688 v 44.94933 c 0,1.49333 1.58156,2.688 3.5585,2.688 h 2.76773 c 1.97694,0 3.5585,-1.19467 3.5585,-2.688 v -14.784 l 1.18616,-1.344 13.24552,17.472 c 0.49424,0.672 2.0758,1.344 3.06427,1.344 h 3.16311 c 2.96541,0 4.54697,-2.09067 3.1631,-4.032 l -16.60633,-22.10133 16.5075,-20.08534 c 1.58154,-1.94133 0,-4.10666 -3.06427,-4.10666 h -3.36081 c -0.98846,0 -2.47117,0.672 -2.96542,1.26933 z"
       style="font-style:normal;font-variant:normal;font-weight:bold;font-stretch:normal;font-size:74.66666412px;font-family:'Ostrich Sans';-inkscape-font-specification:'Ostrich Sans Bold';fill:#ffffff;stroke-width:1.15058529"
       id="path33"
       inkscape:connector-curvature="0" />
    <path
       d="m 395.37691,431.11003 c -1.97694,0 -3.5585,1.19466 -3.5585,2.688 v 44.94933 c 0,1.49333 1.58156,2.688 3.5585,2.688 h 21.351 c 1.97694,0 3.5585,-1.19467 3.5585,-2.688 v -2.016 c 0,-1.49333 -1.58156,-2.688 -3.5585,-2.688 h -15.12363 v -14.112 h 12.45475 c 1.97694,0 3.5585,-1.19467 3.5585,-2.688 v -2.016 c 0,-1.49333 -1.58156,-2.688 -3.5585,-2.688 h -12.45475 v -14.03733 h 15.12363 c 1.97694,0 3.5585,-1.19467 3.5585,-2.688 v -2.016 c 0,-1.49334 -1.58156,-2.688 -3.5585,-2.688 z"
       style="font-style:normal;font-variant:normal;font-weight:bold;font-stretch:normal;font-size:74.66666412px;font-family:'Ostrich Sans';-inkscape-font-specification:'Ostrich Sans Bold';fill:#ffffff;stroke-width:1.15058529"
       id="path35"
       inkscape:connector-curvature="0" />
    <path
       d="m 426.46591,435.81403 c 0,1.49333 1.58156,2.688 3.5585,2.688 h 8.00662 v 40.17066 c 0,1.49334 1.58156,2.688 3.5585,2.688 h 2.66888 c 1.97695,0 3.5585,-1.19466 3.5585,-2.688 v -40.17066 h 8.10547 c 1.97694,0 3.5585,-1.19467 3.5585,-2.688 v -2.09067 c 0,-1.49333 -1.58156,-2.688 -3.5585,-2.688 h -25.89797 c -1.97694,0 -3.5585,1.19467 -3.5585,2.688 z"
       style="font-style:normal;font-variant:normal;font-weight:bold;font-stretch:normal;font-size:74.66666412px;font-family:'Ostrich Sans';-inkscape-font-specification:'Ostrich Sans Bold';fill:#ffffff;stroke-width:1.15058529"
       id="path37"
       inkscape:connector-curvature="0" />
  </g>
</svg>
